<?xml version="1.0" encoding="utf-8"?>
<svg width="1024px" height="1024px" viewBox="0 0 1024 1024" version="1.1" xmlns:xlink="http://www.w3.org/1999/xlink" xmlns="http://www.w3.org/2000/svg">
  <g id="Group">
    <path d="M0 0L1024 0L1024 1024L0 1024L0 0Z" id="Shape" fill="#071830" stroke="none" />
    <g id="Group" transform="translate(154 188.5)">
      <path d="M714.815 0L715.465 0.10211L716 1.31497C713.876 34.4196 695.88 72.2922 674.551 97.6092C636.919 143.093 585.34 166.341 527.336 172.477C475.557 177.954 421.325 170.893 369.729 175.947C306.54 181.58 247.085 208.329 200.939 251.887C149.863 300.857 125.308 359.552 123.81 429.951C106.774 382.74 96.7729 331.736 100.519 281.383C100.977 274.038 101.969 266.32 102.538 258.864C86.4184 259.202 70.2983 259.269 54.1774 259.064C50.7848 268.217 46.1477 275.278 36.464 278.702C29.4641 281.187 21.7581 280.74 15.0916 277.464C-6.56334 266.9 -4.49243 234.625 18.5962 227.191C33.9164 222.26 49.7954 232.58 53.9932 248.712C70.8069 248.606 87.6189 248.671 104.429 248.908C105.561 242.304 106.92 235.741 108.504 229.23C130.21 140.097 188.286 69.3378 273.878 34.6381C334.386 10.1069 388.935 14.2261 452.685 14.3693L610.358 14.7305C621.237 14.6275 632.115 14.6396 642.994 14.7666C672.27 15.1688 689.196 15.6768 714.815 0.000532023" id="Shape" fill="#04B9F8" stroke="none" />
      <path d="M582.868 277.735L583.579 278.061C583.774 282.318 582.501 288.506 581.793 292.821C569.298 368.969 507.52 434.316 429.802 443.577C400.538 447.064 377.987 441.205 349.036 453.773C300.05 475.038 280.27 531.811 301.545 579.969C316.62 613.93 340.168 633.388 374.74 646.985C360.516 647.182 348.553 645.403 334.73 642.925C289.337 634.789 250.327 616.742 215.777 586.229C198.792 586.091 169.276 587.678 153.844 586.046C143.341 615.275 104.656 599.162 113.837 574.447C120.955 555.284 144.475 555.967 153.45 576.098L164.225 576.029L205.592 575.825C171.716 536.614 162.367 501.361 163.979 450.862L67.0309 450.842C52.0828 492.095 -1.29655 465.48 16.4356 432.476C28.5088 410.005 58.3503 413.572 66.7198 440.3C98.5625 439.648 134.161 440.201 166.112 440.449C167.648 432.644 169.297 424.872 171.725 417.288C182.372 384.77 202.213 356.038 228.847 334.573C287.085 287.97 343.229 289.139 413.681 289.718L498.414 289.814C531.818 290.027 552.739 293.236 582.868 277.735" id="Shape" fill="#04B9F8" stroke="none" />
    </g>
  </g>
</svg>